<svg version="1.2" xmlns="http://www.w3.org/2000/svg" viewBox="0 0 374 566" width="500" height="757">
	<title>image</title>
	<style>
		.s0 { fill: #3b3b3b } 
	</style>
	<path id="Path 0" fill-rule="evenodd" class="s0" d="m287.5 200.5l8 4c5.3 2.7 10.1 6.2 14.6 10.5 3.7 3.6 7.5 8.3 8.6 10.5 1.1 2.2 2.9 6.5 3.9 9.5 1.5 4.3 1.9 8.4 1.9 19-0.1 7.4-0.4 14.7-0.8 16.3-0.7 2.7-0.7 2.7 4.3 2.7 4 0 7 1 15.3 5.2 7.9 4 11.6 6.6 16.7 11.8 5.2 5.3 7.3 8.5 14.2 24.5l-0.8 32-4.2 8c-2.4 4.4-5.2 8.9-8.3 12l3.1 5c1.6 2.7 4.6 8.3 10 19.5v31.5l-5 9c-2.8 4.9-6 10.2-9.5 14.5l2.7 2.7c1.5 1.6 4.1 6.3 5.8 10.5 2.8 7.2 3 8.8 3 20.3 0 10.4-0.4 13.5-2.2 18.2-1.2 3.2-4 8.2-6.2 11.2-2.3 3-5.9 6.8-8.1 8.6-2.2 1.7-5.6 4-7.5 5.1-1.9 1.1-5.5 2.9-8 3.9-4.2 1.8-8.3 2-106.5 3.2l-7 4.1c-3.8 2.3-10.6 5.7-23 10.7h-24c-19 0-26-0.4-33.5-1.8-5.2-1-13.8-3.1-19-4.7-5.2-1.6-14.9-5.7-21.5-9.1-6.6-3.4-17.2-9.5-23.5-13.7-8.5-5.5-14.8-10.8-24.1-20.1-7-6.9-16.1-17.3-20.4-23.1-4.3-5.8-8.6-12.3-9.7-14.5-1.1-2.2-2.6-4.7-3.3-5.5-0.7-0.8-2.2-4-3.3-7-1.1-3-3.2-8.4-4.6-12-1.5-3.6-3.3-7.9-4.1-9.5-0.7-1.6-2.6-9.5-4.1-17.5-2.7-13.9-2.8-15.8-2.8-46-0.1-30.9 0-31.7 2.6-42 1.4-5.8 4.9-16.6 7.7-24 2.8-7.4 5.1-13.8 5.1-14.2 0-0.5 2.5-4.5 5.6-9 3.1-4.6 7.3-10.3 9.3-12.8 2-2.5 7.4-8.5 12.1-13.4 4.7-4.8 12.1-11.6 16.5-15 4.4-3.4 10-7.4 12.5-8.8 2.5-1.4 10.8-5.3 18.5-8.8 8.3-3.7 17.7-7 23-8.2 5-1.1 12.8-2.4 17.5-2.8 4.7-0.4 40.9-0.7 152.5-0.5zm-69.5 36.8c-5.9 2.9-6.8 3.7-9.4 9.2l-2.9 6c3.3 10.2 4.7 12.5 7.3 14.4 1.9 1.5 5.1 3.2 7 3.9 2.3 0.7 12.2 1.2 28 1.3 21.3 0.2 24.8 0 27-1.5 1.4-0.9 3.1-1.6 3.8-1.6 0.6 0 2.8-1.2 4.8-2.7 2.4-1.9 4-4.4 5.1-7.8 1-2.7 1.6-6.1 1.4-7.5-0.2-1.4-1.1-4.1-2.1-6-1-1.9-2.9-4.5-4.2-5.6-1.2-1.2-3.4-2.4-4.8-2.7-1.4-0.3-4.3-1-6.5-1.6-2.2-0.6-13.9-1.1-26-1.1h-22.1zm-91.9 2.4c-5.3 1.4-12.7 4-16.5 5.7-3.9 1.8-9.7 5-13 7.1-3.3 2.1-7.8 5-10 6.5-2.2 1.4-7.9 6.4-12.6 11-4.7 4.7-10.6 11.7-13.1 15.6-2.5 3.8-6.2 10.1-8.1 14-2 3.8-4.6 9.6-5.8 13-1.2 3.3-3.1 9.1-4.3 13-1.9 6.3-2.1 9.5-2 34.5 0 22.2 0.3 29.2 1.8 36.5 0.9 4.9 2.4 10.2 3.2 11.7 0.7 1.5 1.4 3.5 1.3 4.5 0 1 2.6 6.9 5.7 13.3 3 6.3 7.9 15.3 10.7 19.9 2.9 4.7 7.6 11.2 10.6 14.5 3.1 3.3 8.7 9.1 12.5 12.9 3.9 3.8 8.4 7.5 10.1 8.4 1.6 0.8 4.1 2.5 5.5 3.8 1.3 1.3 6.5 4.7 11.5 7.6 5.9 3.6 13.7 6.9 23 10 7.7 2.6 18.2 5.4 23.5 6.2 5.2 0.9 12.2 1.6 15.5 1.6 3.3 0 8.9-0.3 12.5-0.8 3.5-0.4 7.7-1.5 9.2-2.4 1.5-1 3.6-1.8 4.5-1.8 1 0 3.6-1.2 5.9-2.7 2.3-1.5 4.8-3.8 5.5-5 0.8-1.2 2.4-2.8 3.7-3.5 1.3-0.7 4-3.9 5.9-7.2 1.9-3.4 4.4-8.7 5.6-12 2.2-6 2.2-6.6 2.2-86.7 0-44.4-0.3-80.9-0.5-81.3-0.3-0.3-3 0-6 0.6-3.1 0.6-9.3 3-14 5.2-5.9 2.9-9.6 5.5-12.3 8.7-2.1 2.4-5.3 7.8-7 12l-3.2 7.5-1 93.3c-4.7 4.9-7.3 7-8.8 7.7-1.5 0.8-5.2 1.5-8.2 1.5-3.1 0-7-0.6-8.8-1.4-1.8-0.7-4.4-2.8-5.9-4.7-2.1-2.8-2.7-4.9-3.1-10.9-0.4-4.2-1.8-10.9-3.2-15-1.7-4.8-4.4-9.7-7.4-13.4-2.5-3.2-6.9-7.7-9.6-9.8-3.2-2.5-8-4.9-13-6.5-6.5-2.1-10.6-2.6-22-3-8-0.3-15.8-1.1-18-1.8-2.2-0.8-5.3-2.8-6.8-4.5-2.4-2.7-2.7-3.8-2.8-10.3 0-6.8 0.2-7.5 3.5-11.5 2.3-2.7 4.9-4.7 7.3-5.4 2.5-0.7 10.5-0.9 23.3-0.6 18.2 0.5 20.1 0.8 29.5 3.7 5.5 1.7 12 4.4 14.5 6 2.9 2 4.6 2.6 4.7 1.8 0.2-0.7 0.6-7.8 1.1-15.7l0.8-14.5c7.3-14.8 12-22.5 15.2-26.8 3.1-4.3 7-8.6 8.7-9.7 1.6-1.1 2.9-2.4 2.9-2.8 0-0.4-1.9-4.6-4.2-9.2-3-6.1-4.5-10.7-5.2-16-0.5-4.2-1-10.4-1-13.8 0-4.5 0.5-7.3 2-9.7l2-3.5c-15.1 0.2-23.8 0.6-29 1.1-5.3 0.5-13.8 2.1-19 3.5zm139 111.4c20.5-0.2 33.4-0.5 42-0.9 13.7-0.6 16-1 20.4-3.2 3.2-1.5 6.4-4.3 8.8-7.4 3-4 3.8-5.9 3.8-9.3 0-2.3-0.9-6.2-1.9-8.5-1-2.3-3.4-5.6-5.3-7.2-1.8-1.7-5.1-3.9-7.3-4.8-3.6-1.6-7.3-1.8-32.3-1.8l-28.2 0.1zm0 78l54.5-0.1c9.3-4.8 13.4-7.6 15.1-9.3 1.8-1.8 3.8-5.2 4.5-7.9 1.1-3.9 1.1-5.2 0.1-6.8-0.7-1.1-1.2-3-1.2-4.2 0-1.2-1-3.8-2.3-5.7-1.2-1.9-3.6-4.1-5.2-4.9-1.7-0.8-4.4-2.1-6-2.9-2.4-1.2-8.7-1.7-31.2-2l-28.1-0.5zm-0.4 43.7c-0.4 5.4-1.3 11.8-2 14.3-0.7 2.5-1.7 5.3-2.2 6.4-0.8 1.8 0.2 1.8 31.1 1.5 29.6-0.4 32.3-0.6 36-2.4 2.1-1.1 5-3.8 6.5-5.9 1.9-3 2.5-5 2.3-8.3-0.2-3.1-1.1-5.2-3-7.4-1.5-1.7-4.9-4.1-7.5-5.5-4.7-2.4-5.1-2.4-32.6-2.4h-27.9z"/>
</svg>