<svg version="1.2" xmlns="http://www.w3.org/2000/svg" viewBox="0 0 374 566" width="200" height="303">
	<title>handright-svg</title>
	<style>
		.s0 { fill: #3b3b3b } 
	</style>
	<path id="Path 0" fill-rule="evenodd" class="s0" d="m203 201.5c2.8 0.8 8.2 2.9 11.9 4.6 3.8 1.6 9.1 4.4 11.8 6.2l5 3.1c98.2 1.1 102.3 1.3 106.5 3.1 2.5 1 6.1 2.8 8 3.9 1.9 1.1 5.3 3.4 7.5 5.1 2.2 1.8 5.8 5.6 8.1 8.6 2.2 3 5 8 6.2 11.1 1.8 4.8 2.2 7.9 2.2 18.3 0 11.5-0.2 13.1-3 20.2-1.7 4.3-4.3 9-5.8 10.6l-2.7 2.7c3.5 4.3 6.7 9.6 9.5 14.5l5 9v31.5c-5.4 11.2-8.4 16.7-10 19.5l-3.1 5c3.1 3.1 5.9 7.6 8.3 12l4.2 8 0.8 32c-6.9 16-9 19.2-14.2 24.5-5.1 5.2-8.8 7.8-16.8 11.8-8.2 4.2-11.2 5.2-15.2 5.2-5 0-5 0-4.3 2.7 0.4 1.6 0.7 8.9 0.8 16.3 0 10.6-0.4 14.7-1.9 19-1 3-2.8 7.3-3.9 9.5-1.1 2.2-4.9 6.9-8.6 10.5-4.5 4.3-9.3 7.8-14.6 10.5l-8 4h-156c-19.4-4.4-27.4-7.2-37-11.5-7.7-3.5-16-7.4-18.5-8.8-2.5-1.4-8.1-5.4-12.5-8.8-4.4-3.4-11.8-10.2-16.5-15-4.7-4.9-10.1-10.9-12.1-13.4-2-2.5-6.2-8.2-9.3-12.8-3.1-4.5-5.6-8.5-5.6-9 0-0.4-2.3-6.8-5.1-14.2-2.8-7.4-6.3-18.2-7.7-24-2.6-10.3-2.7-11.1-2.6-42 0-30.2 0.1-32.1 2.8-46 1.5-8 3.4-15.9 4.1-17.5 0.8-1.6 2.6-5.9 4.1-9.5 1.4-3.6 3.5-9 4.6-12 1.1-3 2.6-6.2 3.3-7 0.7-0.8 2.2-3.3 3.3-5.5 1.1-2.2 5.4-8.7 9.7-14.5 4.3-5.8 13.4-16.2 20.4-23.1 9.3-9.3 15.6-14.6 24.1-20.1 6.3-4.2 16.9-10.3 23.5-13.7 6.6-3.4 16.3-7.5 21.5-9.1 5.2-1.6 13.3-3.6 18-4.5 6-1.2 15.3-1.8 31.5-2.1 18.3-0.3 24.1-0.1 28.3 1.1zm-21.6 32.7c-0.7-0.4-5.4-0.4-10.5 0-5.1 0.4-12.6 1.4-16.7 2.3-4.1 0.8-13.3 3.6-20.5 6-8 2.8-16.4 6.5-22 9.9-4.9 2.9-9.7 6.1-10.5 7.1-0.8 1-3.1 2.5-5 3.5-1.9 1-6.7 4.9-10.5 8.6-3.9 3.8-9.5 9.6-12.5 12.9-3 3.3-7.8 9.8-10.6 14.5-2.9 4.7-7.7 13.7-10.8 20-3.1 6.3-5.6 12.3-5.6 13.2 0 1-0.6 3-1.4 4.5-0.8 1.6-2.2 6.8-3.2 11.8-1.4 7.3-1.8 14.3-1.8 36.5 0 25 0.2 28.1 2.1 34.5 1.1 3.9 3 9.7 4.2 13 1.3 3.3 3.8 9.1 5.8 13 1.9 3.9 5.6 10.1 8.1 14 2.6 3.9 8.5 10.8 13.2 15.5 4.7 4.7 10.3 9.7 12.5 11.1 2.2 1.4 6.7 4.3 10 6.4 3.3 2.2 9.1 5.3 13 7.1 3.9 1.8 11.3 4.4 16.5 5.8 5.2 1.3 14.7 3 21 3.5 6.3 0.6 15 1.1 27 1.1l-2-3.5c-1.4-2.5-2-5.3-2-9.8 0-3.4 0.5-9.6 1.1-13.7 0.7-5.3 2.2-10 5.1-16 2.3-4.7 4.2-8.8 4.2-9.3 0.1-0.4-1.2-1.6-2.9-2.7-1.7-1.1-5.6-5.5-8.7-9.7-3.1-4.3-7.8-12.1-15.1-26.8l-0.9-14.5c-0.4-8-0.9-15.1-1-15.7-0.2-0.8-1.9-0.2-4.8 1.7-2.5 1.7-9 4.4-14.5 6.1-9.3 2.9-11.3 3.1-29.5 3.6-12.8 0.3-20.8 0.1-23.2-0.6-2.4-0.7-5.1-2.7-7.3-5.4-3.3-4-3.5-4.6-3.5-11.5 0-6.4 0.3-7.5 2.8-10.3 1.5-1.7 4.5-3.7 6.7-4.4 2.3-0.8 10.1-1.6 18-1.8 11.4-0.4 15.5-1 22-3.1 5.1-1.6 9.8-3.9 13-6.4 2.8-2.2 7.1-6.6 9.7-9.8 2.9-3.7 5.6-8.7 7.3-13.4 1.4-4.1 2.9-10.9 3.2-15 0.4-6 1.1-8.2 3.2-10.9 1.4-1.9 4.1-4.1 5.9-4.8 1.7-0.7 5.7-1.3 8.7-1.3 3 0 6.7 0.6 8.3 1.4 1.5 0.8 4 2.8 8.7 7.7l1 93.4 3.2 7.5c1.8 4.1 4.9 9.5 7.1 12 2.7 3.2 6.3 5.7 12.3 8.6 4.6 2.3 10.9 4.6 13.9 5.3 3 0.6 5.7 0.8 6 0.5 0.3-0.3 0.5-36.9 0.5-81.2 0-80.1 0-80.7-2.2-86.7-1.1-3.3-3.7-8.7-5.6-12-1.9-3.3-4.7-6.7-6.1-7.5-1.4-0.8-3.1-2.4-3.7-3.5-0.6-1.1-3-3.2-5.4-4.8-2.3-1.5-4.9-2.7-5.6-2.7-0.8 0-3.2-0.9-5.4-2-2.2-1.1-6-2-8.5-2-2.5 0-5.1-0.4-5.8-0.8zm140.8 16.9c-2.5-0.5-17.7-0.9-33.7-1-27.5-0.1-29.3 0-28.7 1.6 0.4 1 1.2 3.8 1.9 6.3 0.7 2.5 1.7 8.9 3 24h27.8c27.4 0 27.8 0 32.5-2.4 2.6-1.4 5.9-3.7 7.3-5.3 1.4-1.5 2.9-4.4 3.2-6.3 0.5-2.6 0.1-4.6-1.6-7.9-1.2-2.4-3.3-5.2-4.7-6.2-1.4-1-4.5-2.2-7-2.8zm-3.5 64.9h-54.5v44.5l28.2-0.6c22.4-0.5 28.9-0.9 31.3-2.1 1.7-0.8 4.4-2.2 6-3 1.7-0.7 4-2.9 5.3-4.8 1.2-1.9 2.2-4.5 2.2-5.8 0-1.2 0.6-3.1 1.3-4.2 1-1.6 0.9-2.9-0.1-6.7-0.8-2.8-2.7-6.1-4.5-7.9-1.8-1.8-5.9-4.6-9.2-6.3zm-10.5 78.9c-7.4-0.3-20.4-0.6-44-0.9v43h28.3c24.9 0 28.7-0.2 32.2-1.7 2.2-1 5.5-3.2 7.4-4.8 1.8-1.7 4.2-4.9 5.2-7.3 1.1-2.3 1.9-6.1 1.9-8.5 0-3.3-0.8-5.3-3.8-9.2-2.4-3.2-5.6-5.9-8.7-7.5-4.4-2.2-6.8-2.6-18.5-3.1zm-38 77.9c-1.4-0.2-12.4-0.2-24.5-0.1-13.5 0.2-23.5 0.7-26 1.5-2.2 0.6-5.6 2.4-7.5 3.8-2.6 2-4 4.3-7.3 14.5l2.9 6c2.6 5.5 3.5 6.3 15.9 12.5h22c12.1 0 23.8-0.5 26-1.1 2.2-0.6 5.1-1.3 6.5-1.6 1.4-0.3 3.6-1.5 4.8-2.7 1.3-1.2 3.2-3.7 4.2-5.6 1-1.9 1.9-4.6 2.1-6 0.2-1.4-0.4-4.8-1.4-7.5-1.1-3.5-2.7-5.8-5.3-7.8-2-1.5-4.1-2.7-4.8-2.7-0.6 0-2-0.6-3.1-1.4-1.1-0.8-3.1-1.6-4.5-1.8z"/>
</svg>